Coordinates
version=1
nRows=31
nColumns=38
inDegrees=no

Units are S.I. units (second, meters, Newtons, ...)
If the header above contains a line with 'inDegrees', this indicates whether rotational values are in degrees (yes) or radians (no).

endheader
time	pelvis_tilt	pelvis_list	pelvis_rotation	pelvis_tx	pelvis_ty	pelvis_tz	hip_flexion_r	hip_adduction_r	hip_rotation_r	knee_angle_r	ankle_angle_r	subtalar_angle_r	mtp_angle_r	hip_flexion_l	hip_adduction_l	hip_rotation_l	knee_angle_l	ankle_angle_l	subtalar_angle_l	mtp_angle_l	lumbar_extension	lumbar_bending	lumbar_rotation	arm_flex_r	arm_add_r	arm_rot_r	elbow_flex_r	pro_sup_r	wrist_flex_r	wrist_dev_r	arm_flex_l	arm_add_l	arm_rot_l	elbow_flex_l	pro_sup_l	wrist_flex_l	wrist_dev_l
20	0.796594	1.53522	0.917105	0.629059	0.399299	1.06296	0.142812	-0.070962	-0.205928	0.35187	-0.279367	0	0	0.0270588	-0.194978	-0.262382	0.191941	-0.291585	0	0	-0.156758	0.020123	0.034292	0.718463	-0.585738	0.90265	0.925662	0.344881	0	0	0.501148	-0.419965	0.428686	1.00319	0.581113	0	0
20.01	0.818161	1.53483	0.895536	0.629103	0.39853	1.06297	0.14615	-0.0716891	-0.209243	0.356853	-0.280025	0	0	0.0306451	-0.196788	-0.262799	0.197354	-0.290645	0	0	-0.165142	0.0200465	0.0337376	0.722075	-0.583851	0.899741	0.923757	0.345967	0	0	0.502547	-0.419501	0.423437	1.00593	0.584215	0	0
20.02	0.827278	1.53378	0.886619	0.62912	0.397622	1.06286	0.150458	-0.0722386	-0.212455	0.361932	-0.280583	0	0	0.035651	-0.198825	-0.262958	0.203678	-0.289326	0	0	-0.172987	0.0200229	0.0332119	0.725581	-0.582026	0.89782	0.92203	0.351125	0	0	0.504738	-0.419111	0.41924	1.00803	0.587589	0	0
20.03	0.814237	1.5319	0.899786	0.629241	0.396608	1.06256	0.156639	-0.0729087	-0.215167	0.367929	-0.280197	0	0	0.0427617	-0.201124	-0.263804	0.211945	-0.284747	0	0	-0.180578	0.0200057	0.0295339	0.733328	-0.577076	0.90196	0.918178	0.354964	0	0	0.502409	-0.420258	0.406901	1.01417	0.597762	0	0
20.04	0.798042	1.52987	0.91628	0.629406	0.395492	1.0622	0.163075	-0.0734956	-0.21766	0.373601	-0.280132	0	0	0.0501212	-0.203198	-0.263439	0.219375	-0.282455	0	0	-0.187929	0.0196276	0.0282401	0.738278	-0.574226	0.901497	0.915265	0.358321	0	0	0.504612	-0.420497	0.402003	1.01667	0.602494	0	0
20.05	0.769822	1.52739	0.945051	0.629604	0.394276	1.06171	0.170866	-0.0743465	-0.219695	0.380425	-0.279372	0	0	0.0591757	-0.205367	-0.263451	0.228241	-0.279816	0	0	-0.195018	0.0188973	0.026589	0.743121	-0.570869	0.899666	0.911738	0.3607	0	0	0.506861	-0.420771	0.396441	1.01941	0.608659	0	0
20.06	0.740464	1.52463	0.975191	0.629839	0.392977	1.06112	0.179455	-0.0753112	-0.221152	0.388175	-0.27831	0	0	0.069362	-0.207927	-0.264336	0.238479	-0.27706	0	0	-0.202144	0.0180206	0.0248732	0.747852	-0.567514	0.897798	0.908305	0.364224	0	0	0.509486	-0.420982	0.390908	1.02201	0.615296	0	0
20.07	0.71431	1.52182	1.00225	0.630078	0.391616	1.06047	0.187946	-0.0762872	-0.222326	0.395525	-0.277427	0	0	0.0798221	-0.21061	-0.264569	0.248912	-0.274221	0	0	-0.209744	0.0171551	0.0230418	0.75252	-0.564111	0.895634	0.905183	0.369014	0	0	0.512361	-0.421388	0.385681	1.02477	0.621246	0	0
20.08	0.686358	1.51873	1.03123	0.630298	0.390152	1.05975	0.196682	-0.0774077	-0.223235	0.402257	-0.276776	0	0	0.0910486	-0.21334	-0.264213	0.25981	-0.271319	0	0	-0.217604	0.016242	0.0208822	0.757435	-0.560562	0.893592	0.902256	0.37438	0	0	0.515314	-0.422083	0.380511	1.02787	0.626215	0	0
20.09	0.659281	1.51537	1.0595	0.630489	0.38859	1.05895	0.206083	-0.0787481	-0.22418	0.409433	-0.276044	0	0	0.103079	-0.21622	-0.263876	0.271524	-0.268192	0	0	-0.22566	0.0153749	0.0184719	0.762926	-0.556977	0.892396	0.899168	0.378707	0	0	0.518367	-0.422836	0.375168	1.03116	0.63086	0	0
20.1	0.633192	1.51176	1.08686	0.630687	0.386947	1.05808	0.216667	-0.080505	-0.22501	0.418252	-0.274992	0	0	0.115532	-0.219014	-0.263258	0.283389	-0.26482	0	0	-0.234088	0.0145729	0.0159402	0.768309	-0.553411	0.889534	0.896302	0.380874	0	0	0.521548	-0.423648	0.369499	1.03478	0.635353	0	0
20.11	0.608909	1.50776	1.1122	0.630928	0.385234	1.05711	0.228686	-0.0823908	-0.225534	0.429007	-0.27365	0	0	0.128738	-0.221983	-0.262595	0.295993	-0.261154	0	0	-0.242649	0.0138879	0.0134688	0.774064	-0.549819	0.887064	0.893619	0.383836	0	0	0.524744	-0.42462	0.3635	1.03862	0.640133	0	0
20.12	0.584769	1.50311	1.13725	0.631201	0.383418	1.056	0.242114	-0.0841832	-0.225355	0.44069	-0.272336	0	0	0.143468	-0.225371	-0.2625	0.310109	-0.257183	0	0	-0.251096	0.0132869	0.010915	0.780337	-0.546167	0.885333	0.891177	0.387759	0	0	0.527829	-0.425711	0.356825	1.0429	0.646144	0	0
20.13	0.576682	1.49959	1.1471	0.631279	0.381588	1.05504	0.253532	-0.0860726	-0.22712	0.451557	-0.271767	0	0	0.156887	-0.228981	-0.262072	0.324017	-0.253843	0	0	-0.26147	0.0133839	0.00795723	0.786835	-0.543082	0.883548	0.889095	0.39104	0	0	0.53177	-0.426442	0.350849	1.04677	0.651621	0	0
20.14	0.565973	1.49583	1.15945	0.631384	0.379664	1.05396	0.265829	-0.0882784	-0.228475	0.462859	-0.271306	0	0	0.171036	-0.232646	-0.261404	0.338394	-0.250433	0	0	-0.271727	0.013376	0.00516679	0.793449	-0.54005	0.881734	0.887025	0.3942	0	0	0.536182	-0.427206	0.345352	1.05038	0.656299	0	0
20.15	0.553335	1.4916	1.17355	0.631539	0.377683	1.05272	0.279127	-0.0905236	-0.229467	0.474856	-0.270488	0	0	0.186146	-0.236606	-0.261116	0.353747	-0.246379	0	0	-0.281691	0.0133087	0.00242295	0.800161	-0.536742	0.879724	0.88476	0.39801	0	0	0.540402	-0.42793	0.339095	1.05429	0.662025	0	0
20.16	0.541769	1.4873	1.18651	0.63171	0.375676	1.05137	0.292627	-0.092692	-0.23053	0.487104	-0.269358	0	0	0.201318	-0.240692	-0.261069	0.369099	-0.242529	0	0	-0.291754	0.0133357	-0.000138017	0.806741	-0.533407	0.877113	0.88253	0.402082	0	0	0.54486	-0.428527	0.332955	1.05807	0.668179	0	0
20.17	0.532181	1.48316	1.19766	0.631849	0.373686	1.04991	0.305979	-0.0949586	-0.231997	0.499694	-0.267879	0	0	0.215792	-0.244643	-0.260959	0.383657	-0.238542	0	0	-0.302167	0.0135507	-0.00271964	0.81318	-0.530246	0.874086	0.880685	0.406481	0	0	0.549462	-0.429045	0.326897	1.06186	0.674663	0	0
20.18	0.523089	1.47929	1.20858	0.631935	0.371729	1.04838	0.319025	-0.0975827	-0.233811	0.512411	-0.266216	0	0	0.229477	-0.248179	-0.260736	0.397211	-0.234466	0	0	-0.312914	0.0138092	-0.0056158	0.819571	-0.52691	0.870714	0.878788	0.411257	0	0	0.553963	-0.429635	0.320725	1.06586	0.680682	0	0
20.19	0.512235	1.47569	1.22143	0.631982	0.369807	1.04678	0.331984	-0.100727	-0.235727	0.525469	-0.264388	0	0	0.242627	-0.251159	-0.260663	0.410162	-0.230438	0	0	-0.323804	0.0138084	-0.00891436	0.826176	-0.523001	0.867583	0.876084	0.417104	0	0	0.558353	-0.43028	0.314317	1.06984	0.686824	0	0
20.2	0.49756	1.47217	1.23803	0.632022	0.367911	1.04512	0.345206	-0.104411	-0.237026	0.538587	-0.262593	0	0	0.255695	-0.253612	-0.261277	0.422955	-0.226478	0	0	-0.334642	0.0133027	-0.0123633	0.832882	-0.518621	0.864676	0.872729	0.423967	0	0	0.562759	-0.43091	0.307565	1.07379	0.693458	0	0
20.21	0.478002	1.46853	1.25939	0.632094	0.365983	1.04337	0.35907	-0.108563	-0.237279	0.551997	-0.260646	0	0	0.26915	-0.255444	-0.26197	0.435896	-0.222586	0	0	-0.345405	0.012174	-0.0158084	0.839567	-0.514073	0.86162	0.869186	0.430847	0	0	0.567418	-0.431424	0.300565	1.07777	0.70095	0	0
20.22	0.454635	1.4645	1.28438	0.632214	0.363993	1.04148	0.373923	-0.113107	-0.236556	0.566034	-0.258456	0	0	0.283542	-0.257039	-0.262748	0.449577	-0.218602	0	0	-0.355955	0.010551	-0.019109	0.845939	-0.509475	0.856846	0.865663	0.435457	0	0	0.572298	-0.431548	0.293313	1.08161	0.708405	0	0
20.23	0.431966	1.45963	1.30835	0.632372	0.361977	1.03936	0.390226	-0.117633	-0.235366	0.581007	-0.256181	0	0	0.299367	-0.259377	-0.264072	0.464751	-0.214324	0	0	-0.365785	0.00898892	-0.0222375	0.85232	-0.504728	0.852097	0.86219	0.440551	0	0	0.577118	-0.431937	0.286598	1.08549	0.71516	0	0
20.24	0.41704	1.4561	1.32456	0.632535	0.359898	1.03727	0.405156	-0.122238	-0.235265	0.596266	-0.256463	0	0	0.313751	-0.262203	-0.264925	0.479842	-0.212499	0	0	-0.377267	0.00777169	-0.0226896	0.858731	-0.504677	0.850073	0.862516	0.433715	0	0	0.586701	-0.431671	0.287017	1.08608	0.713411	0	0
20.25	0.39503	1.44883	1.34738	0.632816	0.357799	1.03461	0.425619	-0.127179	-0.234722	0.614403	-0.251776	0	0	0.333843	-0.265878	-0.266286	0.498448	-0.205482	0	0	-0.384933	0.00639953	-0.0282041	0.865371	-0.49467	0.841714	0.855333	0.452604	0	0	0.587951	-0.433382	0.273843	1.09272	0.727697	0	0
20.26	0.383706	1.44517	1.35959	0.633086	0.35563	1.03227	0.441085	-0.132107	-0.236058	0.630701	-0.25188	0	0	0.349201	-0.269687	-0.267245	0.515182	-0.203594	0	0	-0.396482	0.00525018	-0.028513	0.872988	-0.49424	0.840832	0.854965	0.445615	0	0	0.598257	-0.433163	0.274108	1.09289	0.72648	0	0
20.27	0.370079	1.44007	1.37391	0.633397	0.353435	1.02961	0.458327	-0.137073	-0.236981	0.647446	-0.249112	0	0	0.367168	-0.274187	-0.269225	0.534633	-0.198729	0	0	-0.406701	0.00417191	-0.0314053	0.880902	-0.488971	0.836772	0.851194	0.451402	0	0	0.604536	-0.434033	0.267615	1.09619	0.732315	0	0
20.28	0.355626	1.43417	1.3892	0.63366	0.351191	1.02673	0.476152	-0.141934	-0.237092	0.663498	-0.24388	0	0	0.386732	-0.278768	-0.2716	0.555828	-0.190979	0	0	-0.416315	0.0033747	-0.0365745	0.888875	-0.479739	0.829046	0.844747	0.468884	0	0	0.607901	-0.435723	0.255948	1.10185	0.744022	0	0
20.29	0.35111	1.43273	1.39547	0.633835	0.34891	1.02425	0.487832	-0.14684	-0.239982	0.67764	-0.243785	0	0	0.400893	-0.283244	-0.273199	0.5752	-0.188793	0	0	-0.430813	0.00322468	-0.0372755	0.897865	-0.480272	0.82895	0.845596	0.460302	0	0	0.620003	-0.435614	0.256942	1.10165	0.741498	0	0
20.3	0.344095	1.4294	1.40342	0.634271	0.346826	1.02139	0.501959	-0.151038	-0.241892	0.692711	-0.240238	0	0	0.417626	-0.289018	-0.277398	0.59693	-0.183232	0	0	-0.4428	0.00245651	-0.0398743	0.905727	-0.475044	0.824201	0.842181	0.466103	0	0	0.627759	-0.436958	0.252181	1.10449	0.745875	0	0
